<svg xmlns="http://www.w3.org/2000/svg" width="370.353" height="370.353">
  <path fill="#ffffff" d="M368.432 166.578c-23.256-19.584-42.84-42.84-63.648-64.872-11.016-11.628-28.151-34.884-46.512-36.108-1.224-1.836-3.06-3.06-7.344-2.448-2.448.612-4.284 2.448-4.896 4.896-3.672 14.076-3.06 28.764-3.06 43.452-53.856-7.344-116.893 19.584-159.732 48.348C36.115 191.057-.605 243.078.007 301.217c0 2.448 1.836 3.672 3.672 4.284 1.836 1.836 4.284 2.448 6.732 1.224 70.992-50.184 145.044-94.247 235.009-78.947h.611c-5.508 17.748-6.119 37.943-6.119 56.304 0 5.508 4.896 7.344 8.567 6.732 1.836 2.447 6.12 4.283 9.18 1.224 40.393-33.66 84.456-71.604 111.385-117.503 1.836-1.837 1.836-6.121-.612-7.957zm-20.197 16.524c-10.403 15.3-23.868 28.764-37.332 42.228-18.359 18.36-39.168 34.272-56.916 53.244 0-16.524-.611-33.048.612-50.185 0-1.836-.612-3.06-1.836-3.672 1.836-3.672 1.224-8.567-3.672-9.792-88.741-18.972-170.749 23.256-239.292 77.112 9.18-53.856 41.004-94.248 86.904-124.848s93.637-36.72 146.269-42.84v.612c-.612 4.896 7.344 5.508 8.568 1.224 0-1.224.611-1.836.611-3.06 3.672-1.836 4.896-6.732 1.836-8.568 1.836-9.792 2.448-19.584 3.672-29.376 0-1.836.612-4.896 1.225-7.956 7.956 10.404 21.42 19.584 30.6 28.764 17.748 18.36 34.272 37.944 52.632 56.304 9.791 8.569 14.075 8.569 6.119 20.809z"/>
</svg>